<svg baseProfile="tiny" xmlns="http://www.w3.org/2000/svg" viewBox="0 0 200 39.1"><path fill="none" d="M144.4 5.5c-1-.5-2-.7-3.1-.7s-2.1.2-3.1.7c-1 .5-1.8 1.3-2.6 2.3-.7 1.1-1.3 2.4-1.8 4.1-.4 1.7-.7 3.7-.7 6.1 0 2.4.2 4.4.7 6.1.4 1.7 1 3 1.8 4.1.7 1.1 1.6 1.8 2.6 2.3 1 .5 2 .7 3.1.7s2.1-.2 3.1-.7c1-.5 1.8-1.3 2.6-2.3.7-1.1 1.3-2.4 1.8-4.1.4-1.7.7-3.7.7-6.1 0-2.4-.2-4.4-.7-6.1-.4-1.7-1-3.1-1.8-4.1-.8-1-1.6-1.8-2.6-2.3zM171.9 23.9c0 1.1.2 2.1.5 3 .3.9.8 1.7 1.4 2.4.6.7 1.3 1.2 2.2 1.6.9.4 1.8.6 2.9.6 1.1 0 2.2-.2 3.1-.6s1.7-.9 2.3-1.5c.6-.7 1.1-1.4 1.5-2.3.3-.9.5-1.9.5-2.9 0-1.1-.2-2.1-.5-3-.3-.9-.8-1.7-1.4-2.3-.6-.6-1.3-1.1-2.2-1.4-.8-.3-1.8-.5-2.8-.5-1.2 0-2.2.2-3.1.6-.9.4-1.7 1-2.3 1.6-.6.7-1.1 1.4-1.4 2.3-.6.7-.7 1.5-.7 2.4zM77.4 16.7c-.6-.7-1.2-1.2-1.9-1.5-.7-.3-1.4-.4-2.2-.4-.8 0-1.5.1-2.1.4-.6.3-1.2.7-1.6 1.3-.4.6-.8 1.4-1 2.3-.2.9-.4 2-.4 3.3 0 1.3.1 2.3.3 3.2.2.9.5 1.6.9 2.1.4.6.8 1 1.4 1.2.5.2 1.2.4 1.8.4 1.1 0 2-.2 2.8-.7.8-.4 1.5-1.1 2.1-1.9v-9.7z"/><path fill="#7AC89C" d="M10.4 35.8H9.2c-1 0-1.7-.5-2.3-1.1-.5-.6-.8-1.5-.8-2.5 0-.8 0-1.5.1-2.2l.3-2.1c.1-.7.2-1.3.3-2 .1-.6.1-1.3.1-2 0-.5-.1-1-.2-1.5s-.4-.9-.7-1.3-.6-.7-1-1c-.4-.3-.9-.5-1.4-.7.5-.1 1-.4 1.4-.7.4-.3.7-.6 1-1s.5-.8.7-1.3c.1-.5.2-1 .2-1.5 0-.7 0-1.3-.1-2-.1-.6-.2-1.3-.3-2l-.3-2.1c0-.4-.1-1.2-.1-2 0-1.1.3-1.9.8-2.5.5-.6 1.3-.9 2.3-.9h1.2V0H9.3C8 0 6.9.2 5.9.5 5 .9 4.1 1.3 3.5 2c-.6.6-1.1 1.4-1.4 2.2-.3.9-.5 1.9-.5 3 0 .7 0 1.4.1 2 .1.7.2 1.3.3 2 .1.7.2 1.3.3 2 .1.7.1 1.3.1 2 0 .9-.2 1.6-.6 2.1-.3.5-.9.7-1.8.7v3c.9 0 1.5.3 1.9.8.4.5.6 1.2.6 2.1 0 .7 0 1.3-.1 2s-.2 1.3-.3 2c-.1.7-.2 1.3-.3 2-.1.7-.1 1.3-.1 2 0 1.1.2 2 .5 2.9.3.9.8 1.6 1.4 2.3.6.6 1.4 1.1 2.4 1.5 1 .3 2.1.5 3.4.5h1.1v-3.3zM189.6 3.4h1.2c1 0 1.7.3 2.3.9.5.6.8 1.5.8 2.5 0 .8 0 1.5-.1 2.2l-.3 2.1c-.1.7-.2 1.3-.3 2-.1.6-.1 1.3-.1 2 0 .5.1 1 .2 1.5s.4.9.7 1.3.6.7 1 1c.4.3.9.5 1.4.7-.5.1-1 .4-1.4.7-.4.3-.7.6-1 1s-.5.8-.7 1.3c-.1.5-.2 1-.2 1.5 0 .7 0 1.3.1 2 .1.6.2 1.3.3 2l.3 2.1c.1.7.1 1.4.1 2.2 0 1.1-.3 1.9-.8 2.5-.5.6-1.3 1.1-2.3 1.1h-1.2v3.2h1.1c1.3 0 2.5-.2 3.4-.5 1-.3 1.8-.8 2.4-1.5.6-.6 1.1-1.4 1.4-2.3.3-.9.5-1.8.5-2.9 0-.7 0-1.4-.1-2-.1-.7-.2-1.3-.3-2-.1-.7-.2-1.3-.3-2-.1-.7-.1-1.3-.1-2 0-.9.2-1.6.6-2.1.4-.5 1-.8 1.9-.8V18c-.9 0-1.5-.3-1.9-.8-.4-.5-.6-1.2-.6-2.1 0-.7 0-1.3.1-2s.2-1.3.3-2c.1-.7.2-1.3.3-2s.1-1.3.1-2c0-1.1-.2-2-.5-2.9s-.8-1.6-1.4-2.3c-.6-.6-1.4-1.1-2.4-1.5-1-.3-2.1-.5-3.4-.5h-1.1v3.5z"/><path fill="#f0f3f8" d="M145.2 4c-1.2-.6-2.5-.9-3.9-.9s-2.7.3-3.9.9c-1.2.6-2.3 1.5-3.2 2.7-.9 1.2-1.6 2.8-2.1 4.7-.5 1.9-.8 4.1-.8 6.7 0 2.6.3 4.8.8 6.7.5 1.9 1.2 3.4 2.1 4.7.9 1.2 2 2.1 3.2 2.7 1.2.6 2.5.9 3.9.9s2.7-.3 3.9-.9c1.2-.6 2.3-1.5 3.2-2.7.9-1.2 1.6-2.8 2.2-4.7.5-1.9.8-4.1.8-6.7 0-2.6-.3-4.8-.8-6.7-.5-1.9-1.2-3.4-2.2-4.7-.9-1.2-2-2.1-3.2-2.7zm4.1 14.1c0 2.4-.2 4.4-.7 6.1-.4 1.7-1 3-1.8 4.1-.7 1.1-1.6 1.8-2.6 2.3-1 .5-2 .7-3.1.7s-2.1-.2-3.1-.7c-1-.5-1.8-1.3-2.6-2.3-.7-1.1-1.3-2.4-1.8-4.1-.4-1.7-.7-3.7-.7-6.1 0-2.4.2-4.4.7-6.1.4-1.7 1-3.1 1.8-4.1.7-1.1 1.6-1.9 2.6-2.3 1-.5 2-.7 3.1-.7s2.1.2 3.1.7c1 .5 1.8 1.3 2.6 2.3.7 1.1 1.3 2.4 1.8 4.1.5 1.7.7 3.7.7 6.1z"/><circle fill="#f0f3f8" cx="105.8" cy="15.4" r="2.7"/><path fill="#f0f3f8" d="M125.4 16.2c-.5.8-1.1 1.6-1.8 2.4s-1.4 1.6-2.2 2.4l-9.9 10.2v1.5h18.1v-1.5h-15.8l9.1-9.3c.8-.9 1.6-1.7 2.3-2.5.7-.8 1.4-1.7 1.9-2.5.6-.9 1-1.8 1.3-2.7.3-.9.5-2 .5-3.1 0-1.3-.2-2.5-.7-3.5-.4-1-1-1.8-1.8-2.5-.7-.7-1.6-1.1-2.6-1.5-1-.3-2-.5-3.1-.5s-2.2.2-3.2.5-1.9.9-2.6 1.5c-.8.7-1.4 1.5-1.9 2.5s-.8 2.1-1 3.4l1.6.2s.1-1.3 1.1-3c.4-.7.9-1.3 1.4-1.8.6-.5 1.2-.9 2-1.2.7-.3 1.6-.4 2.4-.4.8 0 1.6.1 2.3.4.7.2 1.4.6 2 1.1.6.5 1 1.2 1.4 2 .3.8.5 1.7.5 2.8 0 1-.1 1.8-.4 2.7 0 .8-.4 1.6-.9 2.4zM96 28.8c-.3.2-.6.4-1.1.6-.4.1-1 .2-1.6.2-.8 0-2.1 0-3.4-.3-2.2-.4-4.1-1.6-4.1-1.6l-1.7 2.8s2.5 2.7 9 2.7c1.4 0 6-.5 7.9-4.3.4-.8.5-1.8.5-2.9 0-.9-.2-1.6-.5-2.2-.3-.6-.7-1.1-1.3-1.6-.5-.4-1.1-.8-1.7-1.1-1.2-.6-6.6-1.8-7.1-2-.5-.2-.9-.5-1.2-.8-.3-.3-.5-.7-.5-1.2 0-.7.2-1.3.8-1.7.6-.4 1.4-.7 2.4-.7.7 0 1.2.1 1.7.2 1.8.4 3.6 1.3 4.3 1.7l1-3.4c-.6-.3-1.9-1-3.1-1.5-1.3-.5-2.6-.7-4.1-.7-1.3 0-2.5.2-3.5.5-1 .4-1.8.8-2.5 1.4-.7.6-1.2 1.3-1.5 2.1-.3.8-.5 1.6-.4 2.5 0 1 .2 1.8.5 2.4.3.7.7 1.2 1.3 1.7.5.5 1.1.8 1.7 1.1.6.3 1.4.5 2.5.9 1.1.3 3.4.7 4.6 1.2.5.2.9.5 1.2.8.3.3.5.7.5 1.2 0 .3 0 .7-.2 1 .1.5-.1.8-.4 1z"/><circle fill="#f0f3f8" cx="105.8" cy="28.5" r="2.7"/><path fill="#f0f3f8" d="M152.9 31.1v1.5h15.7v-1.5h-6.1V3.2H161l-8.1 7.5 1.1 1.1 6.6-5.9v25.2zM82.6 32.8V3.4h-5.2V13c-.7-.6-1.4-1.2-2.3-1.5-.9-.4-1.9-.6-3.1-.6-1.4 0-2.7.3-3.8.9-1.2.4-2.1 1.2-2.9 2.2-.8 1-1.4 2.2-1.9 3.6-.4 1.4-.7 2.9-.7 4.5 0 1.8.2 3.3.6 4.7.4 1.4.9 2.5 1.6 3.5.7.9 1.6 1.6 2.5 2.1 1 .5 2.1.7 3.2.7.8 0 1.5-.1 2.1-.2.7-.2 3.6-1.3 4.6-3.1v3h5.3zm-7.3-4.5c-.8.4-1.7.7-2.8.7-.7 0-1.3-.1-1.8-.4-.5-.2-1-.6-1.4-1.2-.4-.6-.7-1.3-.9-2.1-.2-.9-.3-1.9-.3-3.2 0-1.3.1-2.3.4-3.3.2-.9.6-1.7 1-2.3.4-.6 1-1 1.6-1.3.6-.3 1.4-.4 2.1-.4.8 0 1.5.1 2.2.4.7.3 1.3.8 1.9 1.5v9.7c-.6.8-1.3 1.5-2 1.9zM30.9 27.1c.1.6.2 1.2.4 1.8.3.9.8 1.6 1.4 2.2s1.4 1.1 2.3 1.5c.9.3 1.9.5 3.1.5.7 0 1.4-.1 2-.2.5-.1 1.5-.5 2.8-1.3-.5-.7-1-1.4-1.3-2.3-.6.2-1.2.3-1.9.3-1.2 0-2.1-.3-2.7-.9-.5-.5-.8-1.3-.9-2.2V15.1h4.8v-3.9h-4.8V4.9h-3.5l-1.5 6.3h-1.7l-1 3.9H31v11.7l-.1.3zM61.2 32.8V11.2H56v15.6c-.7.7-1.4 1.3-2.2 1.7-.8.3-1.7.5-2.6.5-1.2 0-2.1-.4-2.7-1.1-.6-.7-.9-1.7-.9-3.1V11.2h-5.2v13.7c0 1.2.2 2.3.5 3.3s.8 1.9 1.4 2.6 1.4 1.3 2.3 1.7c.9.4 1.9.6 3.1.6.7 0 1.4-.1 2-.2.6-.1 2.3-.9 4.3-2.8v2.7h5.2zM23.8 28.8c-.3.2-.6.4-1.1.6-.4.1-1 .2-1.6.2-.8 0-2.1 0-3.4-.3-2.2-.4-4.1-1.6-4.1-1.6L12 30.6s2.5 2.7 9 2.7c1.4 0 6-.5 7.9-4.3.4-.8.5-1.8.5-2.9 0-.9-.2-1.6-.5-2.2-.3-.6-.7-1.1-1.3-1.6-.5-.4-1.1-.8-1.7-1.1-1.2-.6-6.6-1.8-7.1-2-.5-.2-.9-.5-1.2-.8-.3-.3-.5-.7-.5-1.2 0-.7.2-1.3.8-1.7.6-.4 1.4-.7 2.4-.7.7 0 1.2.1 1.7.2 1.8.4 3.6 1.3 4.3 1.7l1-3.4c-.6-.3-1.9-1-3.1-1.5-1.3-.5-2.7-.8-4.2-.8-1.3 0-2.5.2-3.5.5-1 .4-1.8.8-2.5 1.4-.7.6-1.2 1.3-1.5 2.1-.3.8-.5 1.6-.4 2.5 0 1 .2 1.8.5 2.4.3.7.7 1.2 1.3 1.7.5.5 1.1.8 1.7 1.1.6.3 1.4.5 2.5.9 1.1.3 3.4.7 4.6 1.2.5.2.9.5 1.2.8.3.3.5.7.5 1.2 0 .3 0 .7-.2 1 0 .5-.2.8-.4 1zM175.5 14.9l8.3-11.4h-2.2l-8.1 11.2c-1.3 1.8-2.2 3.4-2.7 4.9-.6 1.4-.8 2.7-.8 3.9 0 1.5.2 2.9.6 4 .4 1.2 1 2.2 1.8 3 .8.8 1.7 1.5 2.8 1.9 1.1.4 2.3.7 3.6.7 1.4 0 2.6-.2 3.7-.7 1.1-.5 2.1-1.1 2.9-1.9.8-.8 1.4-1.8 1.9-2.9.5-1.1.7-2.3.7-3.7s-.2-2.5-.6-3.6c-.4-1.1-1-2-1.7-2.7-.7-.8-1.6-1.3-2.6-1.7-1-.4-2.1-.6-3.3-.6-1.3 0-2.4.2-3.5.7-1.1.5-2 1.1-2.8 2l.9-1.5c.4-.5.7-1.1 1.1-1.6zm-1.7 4.1c.6-.7 1.4-1.2 2.3-1.6.9-.4 2-.6 3.1-.6 1 0 2 .2 2.8.5.8.3 1.6.8 2.2 1.4.6.6 1.1 1.4 1.4 2.3.3.9.5 1.9.5 3s-.2 2-.5 2.9c-.3.9-.8 1.7-1.5 2.3-.6.7-1.4 1.2-2.3 1.5s-1.9.6-3.1.6c-1.1 0-2-.2-2.9-.6-.9-.4-1.6-.9-2.2-1.6-.6-.7-1.1-1.5-1.4-2.4-.3-.9-.5-1.9-.5-3 0-.9.2-1.7.5-2.6.5-.6 1-1.4 1.6-2.1z"/></svg>
